# xmcd CD database file
#
# Track frame offsets:
#	150
#	15883
#	27556
#	39543
#	52539
#	66520
#	81922
#	95162
#	111214
#	126642
#
# Disc length: 1941 seconds
#
# Revision: 2
# Processed by: cddbd v1.5.2PL0 Copyright (c) Steve Scherf et al.
# Submitted via: CDex 1.79
#
DISCID=8407930a
DTITLE=Sammy Sadler - Hard On A Heart
DYEAR=2004
DGENRE=Country
TTITLE0=I Know A Place
TTITLE1=Any Four Walls
TTITLE2=Freedom Feels Like Loneliness Today
TTITLE3=That Ole Gravel Road
TTITLE4=Nobody Knows
TTITLE5=Hard On A Heart
TTITLE6=Wild Thing In Me
TTITLE7=No Place To Land
TTITLE8=Sweet Distraction
TTITLE9=It`s Killing Me To Watch Love Die
EXTD=YEAR: 2004
EXTT0=
EXTT1=
EXTT2=
EXTT3=
EXTT4=
EXTT5=
EXTT6=
EXTT7=
EXTT8=
EXTT9=
PLAYORDER=
